<svg width="52" height="66" viewBox="0 0 52 66" fill="none" xmlns="http://www.w3.org/2000/svg">
<path d="M32.5105 18.6404C34.4728 18.6422 36.4127 19.0683 38.2036 19.8907C39.9945 20.7132 41.5963 21.9136 42.9045 23.4136L47 19.6269C44.3785 16.637 40.9392 14.5269 37.1308 13.5721C33.3225 12.6172 29.322 12.8619 25.6512 14.2742C21.9805 15.6865 18.81 18.2008 16.5536 21.489C14.2971 24.7773 13.0595 28.6867 13.0021 32.7073C12.9447 36.7278 14.0703 40.6728 16.2319 44.0273C18.3936 47.3819 21.4909 49.9903 25.1198 51.5122C28.7486 53.034 32.7405 53.3987 36.5745 52.5586C40.4084 51.7185 43.9065 49.7126 46.6122 46.8027L42.6097 42.9045C41.0153 44.6146 39.0326 45.8928 36.8389 46.6249C34.6452 47.357 32.3087 47.5202 30.0385 47.0998C27.7682 46.6795 25.635 45.6888 23.8293 44.2162C22.0236 42.7436 20.6018 40.8351 19.6911 38.6612C18.7803 36.4873 18.4089 34.1158 18.6101 31.7588C18.8114 29.4017 19.5789 27.1325 20.8441 25.1541C22.1094 23.1756 23.8329 21.5495 25.8607 20.4212C27.8884 19.2928 30.1571 18.6974 32.4641 18.6881L32.5105 18.6404Z" fill="white"/>
<path d="M14 13.9093L9.9594 10C6.8029 13.0152 4.2982 16.5992 2.589 20.5463C0.879901 24.4933 0 28.7256 0 33C0 37.2744 0.879901 41.5067 2.589 45.4537C4.2982 49.4008 6.8029 52.9848 9.9594 56L14 52.0907C11.3683 49.5944 9.2789 46.6216 7.8528 43.3445C6.4268 40.0675 5.6925 36.5514 5.6925 33C5.6925 29.4486 6.4268 25.9325 7.8528 22.6555C9.2789 19.3784 11.3683 16.4056 14 13.9093Z" fill="white"/>
<path d="M52 6.47529C46.4907 2.26019 39.8335 -0.00860616 33 -6.15863e-06V5.67589C38.6385 5.67049 44.1326 7.53509 48.6877 11L52 6.47529Z" fill="white"/>
<path d="M33 60.4006V66C39.3922 66.0072 45.6477 64.1435 51 60.6372L47.8559 56C43.433 58.879 38.2722 60.4078 33 60.4006Z" fill="white"/>
<path d="M33 53.4849C28.6698 53.482 24.445 52.187 20.8976 49.7751C17.3501 47.3632 14.6513 43.9508 13.1663 40L8 42.3303C9.9455 47.2367 13.3755 51.4556 17.8382 54.4312C22.3009 57.4069 27.5869 58.9997 33 59V53.4849Z" fill="white"/>
<path d="M12.517 32C12.8524 26.7395 15.1558 21.8049 18.9597 18.1974C22.7636 14.59 27.7832 12.5798 33 12.5747V7C26.3193 6.9998 19.8943 9.595 15.0546 14.2485C10.2149 18.9021 7.331 25.2577 7 32H12.517Z" fill="white"/>
</svg>
