<svg width="83" height="89" viewBox="0 0 83 89" fill="none" xmlns="http://www.w3.org/2000/svg">
<g filter="url(#filter0_f_133_349)">
<ellipse cx="41.5001" cy="75.4451" rx="30.945" ry="3.44484" fill="#4D9DA5" fill-opacity="0.1" style="mix-blend-mode:overlay"/>
</g>
<g filter="url(#filter1_f_133_349)">
<ellipse cx="41.5001" cy="41.0551" rx="30.945" ry="30.9452" fill="url(#paint0_radial_133_349)" fill-opacity="0.7"/>
</g>
<path d="M71.4451 41.0551C71.4451 57.5934 58.0382 71.0003 41.5001 71.0003C24.9619 71.0003 11.5551 57.5934 11.5551 41.0551C11.5551 24.5169 24.9619 11.11 41.5001 11.11C58.0382 11.11 71.4451 24.5169 71.4451 41.0551Z" stroke="url(#paint1_linear_133_349)" stroke-width="2"/>
<g clip-path="url(#clip0_133_349)">
<g opacity="0.1" filter="url(#filter2_f_133_349)">
<path d="M41.8831 51.0114C47.1514 51.0114 49.5635 53.3044 50.526 54.6513C50.8373 55.087 50.5035 55.6077 49.968 55.6077H33.7982C33.2627 55.6077 32.9289 55.087 33.2402 54.6513C34.2026 53.3044 36.6148 51.0114 41.8831 51.0114Z" fill="#06102C"/>
</g>
<path d="M41.5 50.6284C46.7683 50.6284 49.1805 52.9214 50.1429 54.2682C50.4542 54.7039 50.1204 55.2247 49.5849 55.2247H33.4151C32.8796 55.2247 32.5458 54.7039 32.8571 54.2682C33.8196 52.9214 36.2317 50.6284 41.5 50.6284Z" fill="url(#paint2_linear_133_349)"/>
<g opacity="0.1" filter="url(#filter3_f_133_349)">
<path d="M26.5621 31.8601C26.5621 29.7447 28.277 28.0298 30.3924 28.0298H53.3738C55.4892 28.0298 57.2041 29.7447 57.2041 31.8601V48.7133C57.2041 50.8287 55.4892 52.5435 53.3738 52.5435H30.3924C28.277 52.5435 26.5621 50.8287 26.5621 48.7133V31.8601Z" fill="#06102C"/>
</g>
<path d="M26.1791 30.711C26.1791 29.0187 27.551 27.6468 29.2433 27.6468H53.7568C55.4491 27.6468 56.821 29.0187 56.821 30.711V49.0963C56.821 50.7886 55.4491 52.1605 53.7568 52.1605H29.2433C27.551 52.1605 26.1791 50.7886 26.1791 49.0963V30.711Z" fill="url(#paint3_linear_133_349)"/>
<path d="M27.7112 31.8601C27.7112 30.3793 28.9116 29.1789 30.3924 29.1789H52.6078C54.0885 29.1789 55.2889 30.3793 55.2889 31.8601V47.9472C55.2889 49.428 54.0885 50.6284 52.6078 50.6284H30.3924C28.9116 50.6284 27.7112 49.428 27.7112 47.9472V31.8601Z" fill="url(#paint4_linear_133_349)"/>
<path d="M28.0942 31.8601C28.0942 30.5909 29.1232 29.562 30.3924 29.562H52.6078C53.877 29.562 54.906 30.5909 54.906 31.8601V47.9472C54.906 49.2165 53.877 50.2454 52.6078 50.2454H30.3924C29.1232 50.2454 28.0942 49.2165 28.0942 47.9472V31.8601Z" fill="url(#paint5_linear_133_349)"/>
<path d="M29.2433 39.5206C29.2433 39.3091 29.4148 39.1376 29.6263 39.1376H38.8189C39.0304 39.1376 39.2019 39.3091 39.2019 39.5206C39.2019 39.7321 39.0304 39.9036 38.8189 39.9036H29.6263C29.4148 39.9036 29.2433 39.7321 29.2433 39.5206Z" fill="url(#paint6_linear_133_349)"/>
<path d="M29.2433 37.9885C29.2433 37.777 29.4148 37.6055 29.6263 37.6055H44.9473C45.1588 37.6055 45.3303 37.777 45.3303 37.9885C45.3303 38.2 45.1588 38.3715 44.9473 38.3715H29.6263C29.4148 38.3715 29.2433 38.2 29.2433 37.9885Z" fill="url(#paint7_linear_133_349)"/>
<path d="M29.2433 36.4564C29.2433 36.2449 29.4148 36.0734 29.6263 36.0734H32.6905C32.902 36.0734 33.0735 36.2449 33.0735 36.4564C33.0735 36.6679 32.902 36.8394 32.6905 36.8394H29.6263C29.4148 36.8394 29.2433 36.6679 29.2433 36.4564Z" fill="url(#paint8_linear_133_349)"/>
<path d="M29.2433 34.9243C29.2433 34.7127 29.4148 34.5413 29.6263 34.5413H44.9473C45.1588 34.5413 45.3303 34.7127 45.3303 34.9243C45.3303 35.1358 45.1588 35.3073 44.9473 35.3073H29.6263C29.4148 35.3073 29.2433 35.1358 29.2433 34.9243Z" fill="url(#paint9_linear_133_349)"/>
<path d="M29.2433 33.3922C29.2433 33.1806 29.4148 33.0092 29.6263 33.0092H44.9473C45.1588 33.0092 45.3303 33.1806 45.3303 33.3922C45.3303 33.6037 45.1588 33.7752 44.9473 33.7752H29.6263C29.4148 33.7752 29.2433 33.6037 29.2433 33.3922Z" fill="url(#paint10_linear_133_349)"/>
<path d="M29.2433 31.8601C29.2433 31.6485 29.4148 31.4771 29.6263 31.4771H41.8831C42.0946 31.4771 42.2661 31.6485 42.2661 31.8601C42.2661 32.0716 42.0946 32.2431 41.8831 32.2431H29.6263C29.4148 32.2431 29.2433 32.0716 29.2433 31.8601Z" fill="url(#paint11_linear_133_349)"/>
<path fill-rule="evenodd" clip-rule="evenodd" d="M42.7768 29.9449H30.3923C29.3346 29.9449 28.4772 30.8024 28.4772 31.8601V47.9472C28.4772 49.0049 29.3346 49.8623 30.3923 49.8623H36.1377L42.7768 29.9449Z" fill="url(#paint12_linear_133_349)"/>
</g>
<defs>
<filter id="filter0_f_133_349" x="0.555054" y="62.0003" width="81.89" height="26.8896" filterUnits="userSpaceOnUse" color-interpolation-filters="sRGB">
<feFlood flood-opacity="0" result="BackgroundImageFix"/>
<feBlend mode="normal" in="SourceGraphic" in2="BackgroundImageFix" result="shape"/>
<feGaussianBlur stdDeviation="5" result="effect1_foregroundBlur_133_349"/>
</filter>
<filter id="filter1_f_133_349" x="0.555054" y="0.109985" width="81.89" height="81.8903" filterUnits="userSpaceOnUse" color-interpolation-filters="sRGB">
<feFlood flood-opacity="0" result="BackgroundImageFix"/>
<feBlend mode="normal" in="SourceGraphic" in2="BackgroundImageFix" result="shape"/>
<feGaussianBlur stdDeviation="5" result="effect1_foregroundBlur_133_349"/>
</filter>
<filter id="filter2_f_133_349" x="31.1204" y="49.0114" width="21.5254" height="8.59631" filterUnits="userSpaceOnUse" color-interpolation-filters="sRGB">
<feFlood flood-opacity="0" result="BackgroundImageFix"/>
<feBlend mode="normal" in="SourceGraphic" in2="BackgroundImageFix" result="shape"/>
<feGaussianBlur stdDeviation="1" result="effect1_foregroundBlur_133_349"/>
</filter>
<filter id="filter3_f_133_349" x="24.5621" y="26.0298" width="34.642" height="28.5137" filterUnits="userSpaceOnUse" color-interpolation-filters="sRGB">
<feFlood flood-opacity="0" result="BackgroundImageFix"/>
<feBlend mode="normal" in="SourceGraphic" in2="BackgroundImageFix" result="shape"/>
<feGaussianBlur stdDeviation="1" result="effect1_foregroundBlur_133_349"/>
</filter>
<radialGradient id="paint0_radial_133_349" cx="0" cy="0" r="1" gradientUnits="userSpaceOnUse" gradientTransform="translate(10.5551 10.11) rotate(45.0002) scale(87.5259)">
<stop stop-color="#4D9DA5"/>
<stop offset="0.5" stop-color="#384051"/>
<stop offset="1" stop-color="#333A4A" stop-opacity="0"/>
</radialGradient>
<linearGradient id="paint1_linear_133_349" x1="27.4923" y1="5.54071" x2="65.1385" y2="91.3385" gradientUnits="userSpaceOnUse">
<stop stop-color="white"/>
<stop offset="1" stop-color="white" stop-opacity="0"/>
</linearGradient>
<linearGradient id="paint2_linear_133_349" x1="26.179" y1="30.711" x2="56.8212" y2="61.3529" gradientUnits="userSpaceOnUse">
<stop stop-color="#F1F6FF"/>
<stop offset="1" stop-color="#D1D9E8"/>
</linearGradient>
<linearGradient id="paint3_linear_133_349" x1="26.1791" y1="27.6468" x2="54.4846" y2="54.613" gradientUnits="userSpaceOnUse">
<stop stop-color="#EFF4FE"/>
<stop offset="1" stop-color="#D5DCEA"/>
</linearGradient>
<linearGradient id="paint4_linear_133_349" x1="27.7112" y1="29.1789" x2="56.0167" y2="56.1451" gradientUnits="userSpaceOnUse">
<stop stop-color="#252B38"/>
<stop offset="0.472222" stop-color="#2D3547"/>
<stop offset="1" stop-color="#566179"/>
</linearGradient>
<linearGradient id="paint5_linear_133_349" x1="27.3282" y1="28.7959" x2="56.6328" y2="56.5" gradientUnits="userSpaceOnUse">
<stop stop-color="#535D75"/>
<stop offset="1" stop-color="#1F2430"/>
</linearGradient>
<linearGradient id="paint6_linear_133_349" x1="28.8603" y1="39.5206" x2="45.3303" y2="39.5205" gradientUnits="userSpaceOnUse">
<stop stop-color="#00BBD5"/>
<stop offset="0.503472" stop-color="#3AFFE7" stop-opacity="0.8"/>
<stop offset="1" stop-color="#2BA6C1" stop-opacity="0"/>
</linearGradient>
<linearGradient id="paint7_linear_133_349" x1="28.8603" y1="37.9885" x2="45.3303" y2="37.9884" gradientUnits="userSpaceOnUse">
<stop stop-color="#00BBD5"/>
<stop offset="0.503472" stop-color="#3AFFE7" stop-opacity="0.8"/>
<stop offset="1" stop-color="#2BA6C1" stop-opacity="0"/>
</linearGradient>
<linearGradient id="paint8_linear_133_349" x1="28.8603" y1="36.4564" x2="45.3303" y2="36.4563" gradientUnits="userSpaceOnUse">
<stop stop-color="#00BBD5"/>
<stop offset="0.503472" stop-color="#3AFFE7" stop-opacity="0.8"/>
<stop offset="1" stop-color="#2BA6C1" stop-opacity="0"/>
</linearGradient>
<linearGradient id="paint9_linear_133_349" x1="28.8603" y1="34.9243" x2="45.3303" y2="34.9242" gradientUnits="userSpaceOnUse">
<stop stop-color="#00BBD5"/>
<stop offset="0.503472" stop-color="#3AFFE7" stop-opacity="0.8"/>
<stop offset="1" stop-color="#2BA6C1" stop-opacity="0"/>
</linearGradient>
<linearGradient id="paint10_linear_133_349" x1="28.8603" y1="33.3922" x2="45.3303" y2="33.3921" gradientUnits="userSpaceOnUse">
<stop stop-color="#00BBD5"/>
<stop offset="0.503472" stop-color="#3AFFE7" stop-opacity="0.8"/>
<stop offset="1" stop-color="#2BA6C1" stop-opacity="0"/>
</linearGradient>
<linearGradient id="paint11_linear_133_349" x1="28.8603" y1="31.8601" x2="45.3303" y2="31.86" gradientUnits="userSpaceOnUse">
<stop stop-color="#00BBD5"/>
<stop offset="0.503472" stop-color="#3AFFE7" stop-opacity="0.8"/>
<stop offset="1" stop-color="#2BA6C1" stop-opacity="0"/>
</linearGradient>
<linearGradient id="paint12_linear_133_349" x1="27.7028" y1="30.9791" x2="23.3801" y2="45.0025" gradientUnits="userSpaceOnUse">
<stop stop-color="#C4D7FF" stop-opacity="0.1"/>
<stop offset="1" stop-color="#D9E5FF" stop-opacity="0"/>
</linearGradient>
<clipPath id="clip0_133_349">
<rect width="36.7704" height="36.7705" fill="white" transform="translate(23.1149 23.0505)"/>
</clipPath>
</defs>
</svg>
