<svg width="85" height="28" viewBox="0 0 85 28" fill="none" xmlns="http://www.w3.org/2000/svg">
<path d="M0.06 2.3H5.136V12.884H14.928V2.3H20.004V27.5H14.928V16.844H5.136V27.5H0.06V2.3ZM41.2508 23.3C41.2508 23.86 41.3574 24.3267 41.5708 24.7C41.7841 25.0467 42.1708 25.4333 42.7308 25.86L40.3708 27.94C39.0108 27.2467 38.1841 26.26 37.8908 24.98C37.2508 25.8867 36.3574 26.6067 35.2108 27.14C34.0908 27.6733 32.7974 27.94 31.3308 27.94C29.3308 27.94 27.7841 27.4733 26.6908 26.54C25.5974 25.58 25.0508 24.2067 25.0508 22.42C25.0508 20.58 25.6908 19.2067 26.9708 18.3C28.2508 17.3933 30.0108 16.82 32.2508 16.58L34.9708 16.26C36.1174 16.1267 36.8641 15.9267 37.2108 15.66C37.5841 15.3667 37.7574 14.8733 37.7308 14.18C37.6241 13.14 37.1974 12.3133 36.4508 11.7C35.7308 11.0867 34.6241 10.78 33.1308 10.78C32.0374 10.78 31.1041 10.9667 30.3308 11.34C29.5574 11.6867 28.8508 12.26 28.2108 13.06L25.8108 11.34C26.4774 10.3267 27.3974 9.56667 28.5708 9.06C29.7708 8.52667 31.2908 8.26 33.1308 8.26C35.8241 8.26 37.8508 8.82 39.2108 9.94C40.5708 11.06 41.2508 12.6867 41.2508 14.82V23.3ZM32.1708 25.34C33.8508 25.34 35.1974 24.9 36.2108 24.02C37.2508 23.14 37.7708 22.02 37.7708 20.66V17.98C37.1574 18.3267 36.2108 18.5533 34.9308 18.66L32.5708 18.9C29.7974 19.22 28.4108 20.3533 28.4108 22.3C28.4108 23.2867 28.7308 24.0467 29.3708 24.58C30.0108 25.0867 30.9441 25.34 32.1708 25.34ZM56.472 8.26C57.6187 8.26 58.5787 8.54 59.352 9.1L58.472 12.18C57.5654 11.6467 56.6054 11.38 55.592 11.38C54.392 11.38 53.3654 11.8867 52.512 12.9C51.6587 13.9133 51.032 15.2733 50.632 16.98V27.5H47.112V12.9C47.112 12.34 47.0054 11.8867 46.792 11.54C46.5787 11.1667 46.192 10.7667 45.632 10.34L47.992 8.26C48.9254 8.76667 49.5787 9.32667 49.952 9.94C50.352 10.5267 50.5787 11.3533 50.632 12.42C51.2187 11.1133 52.0054 10.1 52.992 9.38C53.9787 8.63333 55.1387 8.26 56.472 8.26ZM67.7483 27.94C65.9883 27.94 64.5616 27.6867 63.4683 27.18C62.4016 26.6467 61.4149 25.7933 60.5083 24.62L62.7483 22.7C63.5216 23.6067 64.2683 24.2467 64.9883 24.62C65.7349 24.9933 66.6549 25.18 67.7483 25.18C70.6549 25.18 72.1083 24.26 72.1083 22.42C72.1083 21.8333 71.9483 21.3667 71.6283 21.02C71.3349 20.6467 70.8016 20.34 70.0283 20.1C69.2816 19.8333 68.1483 19.5667 66.6283 19.3C64.7616 18.9267 63.3616 18.2867 62.4283 17.38C61.4949 16.4467 61.0283 15.22 61.0283 13.7C61.0283 11.9933 61.6549 10.66 62.9083 9.7C64.1616 8.74 65.8816 8.26 68.0683 8.26C71.2949 8.26 73.5616 9.28667 74.8683 11.34L72.6283 13.22C71.9883 12.4467 71.3083 11.8867 70.5883 11.54C69.8949 11.1933 69.0549 11.02 68.0683 11.02C66.8949 11.02 65.9883 11.26 65.3483 11.74C64.7083 12.22 64.3883 12.8867 64.3883 13.74C64.3883 14.5133 64.6949 15.1133 65.3083 15.54C65.9216 15.94 66.8949 16.2733 68.2283 16.54C69.9883 16.94 71.3749 17.3667 72.3883 17.82C73.4016 18.2467 74.1616 18.8333 74.6683 19.58C75.1749 20.3 75.4283 21.26 75.4283 22.46C75.4283 26.1133 72.8683 27.94 67.7483 27.94ZM81.452 5.02C80.8387 5.02 80.3054 4.80667 79.852 4.38C79.4254 3.92667 79.212 3.39333 79.212 2.78C79.212 2.16667 79.4254 1.64667 79.852 1.22C80.3054 0.766666 80.8387 0.539999 81.452 0.539999C82.0654 0.539999 82.5854 0.766666 83.012 1.22C83.4654 1.64667 83.692 2.16667 83.692 2.78C83.692 3.39333 83.4654 3.92667 83.012 4.38C82.5854 4.80667 82.0654 5.02 81.452 5.02ZM82.332 27.94C81.3454 27.4067 80.652 26.8067 80.252 26.14C79.8787 25.4467 79.692 24.5 79.692 23.3V8.7H83.212V23.3C83.212 23.86 83.3187 24.3267 83.532 24.7C83.7454 25.0467 84.132 25.4333 84.692 25.86L82.332 27.94Z" fill="white"/>
</svg>
