<svg width="52" height="52" viewBox="0 0 52 52" fill="none" xmlns="http://www.w3.org/2000/svg">
<g filter="url(#filter0_d_133_286)">
<rect x="4" width="44" height="44" rx="10" fill="url(#paint0_linear_133_286)" fill-opacity="0.5" shape-rendering="crispEdges"/>
<rect x="4.75" y="0.75" width="42.5" height="42.5" rx="9.25" stroke="url(#paint1_linear_133_286)" stroke-opacity="0.2" stroke-width="1.5" shape-rendering="crispEdges"/>
</g>
<path d="M22.5 33.6667H29.5C35.3334 33.6667 37.6667 31.3333 37.6667 25.5V18.5C37.6667 12.6667 35.3334 10.3333 29.5 10.3333H22.5C16.6667 10.3333 14.3334 12.6667 14.3334 18.5V25.5C14.3334 31.3333 16.6667 33.6667 22.5 33.6667Z" stroke="url(#paint2_linear_133_286)" stroke-width="2.5" stroke-linecap="round" stroke-linejoin="round"/>
<path d="M26.0001 26.0833C28.2552 26.0833 30.0834 24.2552 30.0834 22C30.0834 19.7448 28.2552 17.9167 26.0001 17.9167C23.7449 17.9167 21.9167 19.7448 21.9167 22C21.9167 24.2552 23.7449 26.0833 26.0001 26.0833Z" stroke="url(#paint3_linear_133_286)" stroke-width="2.5" stroke-linecap="round" stroke-linejoin="round"/>
<path d="M32.5755 16.1667H32.589" stroke="white" stroke-width="3" stroke-linecap="round" stroke-linejoin="round"/>
<defs>
<filter id="filter0_d_133_286" x="0" y="0" width="52" height="52" filterUnits="userSpaceOnUse" color-interpolation-filters="sRGB">
<feFlood flood-opacity="0" result="BackgroundImageFix"/>
<feColorMatrix in="SourceAlpha" type="matrix" values="0 0 0 0 0 0 0 0 0 0 0 0 0 0 0 0 0 0 127 0" result="hardAlpha"/>
<feOffset dy="4"/>
<feGaussianBlur stdDeviation="2"/>
<feComposite in2="hardAlpha" operator="out"/>
<feColorMatrix type="matrix" values="0 0 0 0 0 0 0 0 0 0 0 0 0 0 0 0 0 0 0.25 0"/>
<feBlend mode="normal" in2="BackgroundImageFix" result="effect1_dropShadow_133_286"/>
<feBlend mode="normal" in="SourceGraphic" in2="effect1_dropShadow_133_286" result="shape"/>
</filter>
<linearGradient id="paint0_linear_133_286" x1="3.57692" y1="-10.3529" x2="21.6953" y2="64.7237" gradientUnits="userSpaceOnUse">
<stop stop-color="white" stop-opacity="0.5"/>
<stop offset="1" stop-color="#5738DD" stop-opacity="0"/>
</linearGradient>
<linearGradient id="paint1_linear_133_286" x1="10.3768" y1="-6.21739" x2="37.7971" y2="46.3913" gradientUnits="userSpaceOnUse">
<stop stop-color="white" stop-opacity="0.5"/>
<stop offset="1" stop-opacity="0"/>
</linearGradient>
<linearGradient id="paint2_linear_133_286" x1="26" y1="10.3333" x2="26" y2="33.6667" gradientUnits="userSpaceOnUse">
<stop stop-color="white"/>
<stop offset="1" stop-color="white" stop-opacity="0.5"/>
</linearGradient>
<linearGradient id="paint3_linear_133_286" x1="26.0001" y1="17.9167" x2="26.0001" y2="26.0833" gradientUnits="userSpaceOnUse">
<stop stop-color="white"/>
<stop offset="1" stop-color="white" stop-opacity="0.5"/>
</linearGradient>
</defs>
</svg>
