<svg width="52" height="52" viewBox="0 0 52 52" fill="none" xmlns="http://www.w3.org/2000/svg">
<g filter="url(#filter0_d_133_282)">
<rect x="4" width="44" height="44" rx="10" fill="url(#paint0_linear_133_282)" fill-opacity="0.5" shape-rendering="crispEdges"/>
<rect x="4.75" y="0.75" width="42.5" height="42.5" rx="9.25" stroke="url(#paint1_linear_133_282)" stroke-opacity="0.2" stroke-width="1.5" shape-rendering="crispEdges"/>
</g>
<path d="M19.8215 15C24.1411 15 27.6426 18.3581 27.6426 22.5001C27.6426 26.6422 24.1409 30 19.8215 30C15.502 30 12 26.6422 12 22.5001C12 18.3581 15.5018 15 19.8215 15ZM32.3118 15.4393C34.4716 15.4393 36.2225 18.6002 36.2225 22.5001H36.2228C36.2228 26.399 34.4719 29.5609 32.312 29.5609C30.1522 29.5609 28.4013 26.399 28.4013 22.5001C28.4013 18.6013 30.1519 15.4393 32.3118 15.4393ZM38.3568 16.1748C39.1163 16.1748 39.7322 19.0067 39.7322 22.5001C39.7322 25.9926 39.1165 28.8255 38.3568 28.8255C37.5971 28.8255 36.9817 25.9933 36.9817 22.5001C36.9817 19.0069 37.5974 16.1748 38.3568 16.1748Z" fill="url(#paint2_linear_133_282)"/>
<defs>
<filter id="filter0_d_133_282" x="0" y="0" width="52" height="52" filterUnits="userSpaceOnUse" color-interpolation-filters="sRGB">
<feFlood flood-opacity="0" result="BackgroundImageFix"/>
<feColorMatrix in="SourceAlpha" type="matrix" values="0 0 0 0 0 0 0 0 0 0 0 0 0 0 0 0 0 0 127 0" result="hardAlpha"/>
<feOffset dy="4"/>
<feGaussianBlur stdDeviation="2"/>
<feComposite in2="hardAlpha" operator="out"/>
<feColorMatrix type="matrix" values="0 0 0 0 0 0 0 0 0 0 0 0 0 0 0 0 0 0 0.25 0"/>
<feBlend mode="normal" in2="BackgroundImageFix" result="effect1_dropShadow_133_282"/>
<feBlend mode="normal" in="SourceGraphic" in2="effect1_dropShadow_133_282" result="shape"/>
</filter>
<linearGradient id="paint0_linear_133_282" x1="3.57692" y1="-10.3529" x2="21.6953" y2="64.7237" gradientUnits="userSpaceOnUse">
<stop stop-color="white" stop-opacity="0.5"/>
<stop offset="1" stop-color="#5738DD" stop-opacity="0"/>
</linearGradient>
<linearGradient id="paint1_linear_133_282" x1="10.3768" y1="-6.21739" x2="37.7971" y2="46.3913" gradientUnits="userSpaceOnUse">
<stop stop-color="white" stop-opacity="0.5"/>
<stop offset="1" stop-opacity="0"/>
</linearGradient>
<linearGradient id="paint2_linear_133_282" x1="25.8661" y1="15" x2="25.8661" y2="38.1383" gradientUnits="userSpaceOnUse">
<stop stop-color="white"/>
<stop offset="1" stop-color="white" stop-opacity="0.5"/>
</linearGradient>
</defs>
</svg>
