<svg width="504" height="504" viewBox="0 0 504 504" fill="none" xmlns="http://www.w3.org/2000/svg">
<mask id="mask0_133_229" style="mask-type:alpha" maskUnits="userSpaceOnUse" x="0" y="0" width="505" height="504">
<line x1="504" y1="56.5" x2="0.000244097" y2="56.5" stroke="url(#paint0_linear_133_229)"/>
<line x1="504" y1="112.5" x2="0.000244097" y2="112.5" stroke="url(#paint1_linear_133_229)"/>
<line x1="504" y1="168.5" x2="0.000244097" y2="168.5" stroke="url(#paint2_linear_133_229)"/>
<line x1="504" y1="224.5" x2="0.000244097" y2="224.5" stroke="url(#paint3_linear_133_229)"/>
<line x1="504" y1="280.5" x2="0.000244097" y2="280.5" stroke="url(#paint4_linear_133_229)"/>
<line x1="504" y1="336.5" x2="0.000244097" y2="336.5" stroke="url(#paint5_linear_133_229)"/>
<line x1="504" y1="392.5" x2="0.000244097" y2="392.5" stroke="url(#paint6_linear_133_229)"/>
<line x1="504" y1="448.5" x2="0.000244097" y2="448.5" stroke="url(#paint7_linear_133_229)"/>
<line x1="56.5002" y1="2.18557e-08" x2="56.5002" y2="504" stroke="url(#paint8_linear_133_229)"/>
<line x1="112.5" y1="2.18557e-08" x2="112.5" y2="504" stroke="url(#paint9_linear_133_229)"/>
<line x1="168.5" y1="2.18557e-08" x2="168.5" y2="504" stroke="url(#paint10_linear_133_229)"/>
<line x1="224.5" y1="2.18557e-08" x2="224.5" y2="504" stroke="url(#paint11_linear_133_229)"/>
<line x1="280.5" y1="2.18557e-08" x2="280.5" y2="504" stroke="url(#paint12_linear_133_229)"/>
<line x1="336.5" y1="2.18557e-08" x2="336.5" y2="504" stroke="url(#paint13_linear_133_229)"/>
<line x1="392.5" y1="2.18557e-08" x2="392.5" y2="504" stroke="url(#paint14_linear_133_229)"/>
<line x1="448.5" y1="2.18557e-08" x2="448.5" y2="504" stroke="url(#paint15_linear_133_229)"/>
</mask>
<g mask="url(#mask0_133_229)">
<circle cx="252" cy="252" r="289" fill="url(#paint16_radial_133_229)"/>
</g>
<defs>
<linearGradient id="paint0_linear_133_229" x1="252" y1="56" x2="252" y2="55" gradientUnits="userSpaceOnUse">
<stop offset="0.489583" stop-color="white"/>
<stop offset="1" stop-color="white" stop-opacity="0"/>
</linearGradient>
<linearGradient id="paint1_linear_133_229" x1="252" y1="112" x2="252" y2="111" gradientUnits="userSpaceOnUse">
<stop offset="0.489583" stop-color="white"/>
<stop offset="1" stop-color="white" stop-opacity="0"/>
</linearGradient>
<linearGradient id="paint2_linear_133_229" x1="252" y1="168" x2="252" y2="167" gradientUnits="userSpaceOnUse">
<stop offset="0.489583" stop-color="white"/>
<stop offset="1" stop-color="white" stop-opacity="0"/>
</linearGradient>
<linearGradient id="paint3_linear_133_229" x1="252" y1="224" x2="252" y2="223" gradientUnits="userSpaceOnUse">
<stop offset="0.489583" stop-color="white"/>
<stop offset="1" stop-color="white" stop-opacity="0"/>
</linearGradient>
<linearGradient id="paint4_linear_133_229" x1="252" y1="280" x2="252" y2="279" gradientUnits="userSpaceOnUse">
<stop offset="0.489583" stop-color="white"/>
<stop offset="1" stop-color="white" stop-opacity="0"/>
</linearGradient>
<linearGradient id="paint5_linear_133_229" x1="252" y1="336" x2="252" y2="335" gradientUnits="userSpaceOnUse">
<stop offset="0.489583" stop-color="white"/>
<stop offset="1" stop-color="white" stop-opacity="0"/>
</linearGradient>
<linearGradient id="paint6_linear_133_229" x1="252" y1="392" x2="252" y2="391" gradientUnits="userSpaceOnUse">
<stop offset="0.489583" stop-color="white"/>
<stop offset="1" stop-color="white" stop-opacity="0"/>
</linearGradient>
<linearGradient id="paint7_linear_133_229" x1="252" y1="448" x2="252" y2="447" gradientUnits="userSpaceOnUse">
<stop offset="0.489583" stop-color="white"/>
<stop offset="1" stop-color="white" stop-opacity="0"/>
</linearGradient>
<linearGradient id="paint8_linear_133_229" x1="56.0002" y1="252" x2="55.0002" y2="252" gradientUnits="userSpaceOnUse">
<stop offset="0.489583" stop-color="white"/>
<stop offset="1" stop-color="white" stop-opacity="0"/>
</linearGradient>
<linearGradient id="paint9_linear_133_229" x1="112" y1="252" x2="111" y2="252" gradientUnits="userSpaceOnUse">
<stop offset="0.489583" stop-color="white"/>
<stop offset="1" stop-color="white" stop-opacity="0"/>
</linearGradient>
<linearGradient id="paint10_linear_133_229" x1="168" y1="252" x2="167" y2="252" gradientUnits="userSpaceOnUse">
<stop offset="0.489583" stop-color="white"/>
<stop offset="1" stop-color="white" stop-opacity="0"/>
</linearGradient>
<linearGradient id="paint11_linear_133_229" x1="224" y1="252" x2="223" y2="252" gradientUnits="userSpaceOnUse">
<stop offset="0.489583" stop-color="white"/>
<stop offset="1" stop-color="white" stop-opacity="0"/>
</linearGradient>
<linearGradient id="paint12_linear_133_229" x1="280" y1="252" x2="279" y2="252" gradientUnits="userSpaceOnUse">
<stop offset="0.489583" stop-color="white"/>
<stop offset="1" stop-color="white" stop-opacity="0"/>
</linearGradient>
<linearGradient id="paint13_linear_133_229" x1="336" y1="252" x2="335" y2="252" gradientUnits="userSpaceOnUse">
<stop offset="0.489583" stop-color="white"/>
<stop offset="1" stop-color="white" stop-opacity="0"/>
</linearGradient>
<linearGradient id="paint14_linear_133_229" x1="392" y1="252" x2="391" y2="252" gradientUnits="userSpaceOnUse">
<stop offset="0.489583" stop-color="white"/>
<stop offset="1" stop-color="white" stop-opacity="0"/>
</linearGradient>
<linearGradient id="paint15_linear_133_229" x1="448" y1="252" x2="447" y2="252" gradientUnits="userSpaceOnUse">
<stop offset="0.489583" stop-color="white"/>
<stop offset="1" stop-color="white" stop-opacity="0"/>
</linearGradient>
<radialGradient id="paint16_radial_133_229" cx="0" cy="0" r="1" gradientUnits="userSpaceOnUse" gradientTransform="translate(252 252) rotate(90) scale(289)">
<stop stop-color="white" stop-opacity="0.3"/>
<stop offset="1" stop-color="white" stop-opacity="0"/>
</radialGradient>
</defs>
</svg>
